<svg id="Layer_1" data-name="Layer 1" xmlns="http://www.w3.org/2000/svg" viewBox="0 0 69.44 73.2"><defs><style>.cls-1{fill:#fff;}</style></defs><title>github</title><path class="cls-1" d="M313.55,36.11a4,4,0,0,1,1.41.23s2.4,3.61.8,11.34c0,0,5.2,6,4.66,13.61-.08,1.19-.05,2.35-.24,3.54a29.13,29.13,0,0,1-3.11,8.56c-2,3.86-5.78,5.72-9.78,7-1.27.38-2.56.71-3.87,1-.65.12-1.31.23-2,.32a14.73,14.73,0,0,1-1.73.25c-.13,0-.22,0-.25,0s3.87,4.27,3.47,7.34v12.14H281.07l-.17-7.19c0,.14-1.39.46-1.5.49a13.78,13.78,0,0,1-3.2.37c-.29,0-.59,0-.88,0a11.06,11.06,0,0,1-5.39-1.69,10.94,10.94,0,0,1-3-3.43c-1-1.51-1.49-3.21-2.56-4.68a14.69,14.69,0,0,0-3.26-3.23c-.25-.19-2.54-1.73-2-1.79h.13a3.76,3.76,0,0,1,.76.11c.34.08.68.17,1,.24a10.79,10.79,0,0,1,1.23.36,9.36,9.36,0,0,1,1.34.49,8.51,8.51,0,0,1,1.05.62,9.53,9.53,0,0,1,1,.83l.24.22c1.4,1.3,2,3.09,3.23,4.52a8.39,8.39,0,0,0,4.6,2.7,17,17,0,0,0,1.9.1c1.86,0,4.59-.28,5.91-1.75,0,0,1.16-4.87,2.9-6.74a.62.62,0,0,1-.37.07c-.33,0-.77-.06-.88-.06a26.43,26.43,0,0,1-3.33-.32,24.27,24.27,0,0,1-8.08-2.67,14.38,14.38,0,0,1-6-6.67,25.4,25.4,0,0,1-2.3-8.32,29.64,29.64,0,0,1-.15-3.77s.27-7.2,4.4-11.61c0,0-2.27-6.8.4-11.87a7,7,0,0,1,1.59-.15c2,0,5.79.6,10.15,4.15a51.93,51.93,0,0,1,12.18-1.52,29.62,29.62,0,0,1,10.77,1.79s6.56-4.77,10.73-4.77m0-4c-3.95,0-8.7,2.65-11.32,4.34a35.13,35.13,0,0,0-10.18-1.36,56.87,56.87,0,0,0-11.26,1.2,19.21,19.21,0,0,0-11.07-3.83,10.31,10.31,0,0,0-2.58.28,4,4,0,0,0-2.55,2c-2.41,4.58-1.85,9.85-1.23,12.79a25.09,25.09,0,0,0-4,12.4V60a33.51,33.51,0,0,0,.17,4.27,29.09,29.09,0,0,0,2.68,9.65,21.68,21.68,0,0,0,1.95,3.31l-.4-.13L263.5,77l-.23-.08a10.92,10.92,0,0,0-1.46-.4l-.47-.11-.48-.11h-.07a7,7,0,0,0-1.53-.19,4.71,4.71,0,0,0-.53,0,4,4,0,0,0-3.56,3c-.77,2.95,1.6,4.59,3.49,5.92l.1.07a10.39,10.39,0,0,1,2.35,2.33,13.78,13.78,0,0,1,1.08,2A23.35,23.35,0,0,0,263.53,92a14.65,14.65,0,0,0,4.2,4.62A15,15,0,0,0,275.08,99c.37,0,.75,0,1.12,0s.54,0,.82,0c0,1.34.05,2.44.05,2.44a4,4,0,0,0,4,3.91H303a4,4,0,0,0,4-4V89.38a9.94,9.94,0,0,0-.83-4.57c.78-.2,1.56-.41,2.34-.65,3.83-1.17,9.26-3.37,12.15-8.92a32.32,32.32,0,0,0,3.52-9.77,23.49,23.49,0,0,0,.23-2.84c0-.35,0-.7.05-1.06.47-6.69-2.62-12.26-4.42-14.89,1.18-7.93-1.39-12.08-1.71-12.55a4,4,0,0,0-1.91-1.53,8,8,0,0,0-2.82-.49ZM275.6,86.32a13.58,13.58,0,0,1-1.42-.07,5,5,0,0,1-2-1.32,11.13,11.13,0,0,1-1-1.46c-.11-.19-.23-.39-.36-.59a28.78,28.78,0,0,0,7.46,2.43l-.23.74a9.49,9.49,0,0,1-2.44.27Z" transform="translate(-255.02 -32.11)"/></svg>