<svg id="Layer_1" data-name="Layer 1" xmlns="http://www.w3.org/2000/svg" viewBox="0 0 69.56 69.56"><defs><style>.cls-1{fill:none;stroke:#fff;stroke-miterlimit:10;stroke-width:4.37px;}.cls-2{fill:#fff;}</style></defs><title>li</title><rect class="cls-1" x="2.18" y="2.18" width="65.2" height="65.2" rx="6.68" ry="6.68"/><path class="cls-2" d="M183.83,61.16a4.59,4.59,0,0,1-3.39-1.32,4.77,4.77,0,0,1,0-6.59,5.16,5.16,0,0,1,6.8,0,4.88,4.88,0,0,1,0,6.63A4.68,4.68,0,0,1,183.83,61.16Zm3.95,30.73h-8v-27h8Z" transform="translate(-164.37 -37.66)"/><path class="cls-2" d="M219.55,91.89h-8v-15a8.37,8.37,0,0,0-1.07-4.71,3.65,3.65,0,0,0-3.23-1.57,4.21,4.21,0,0,0-3.42,1.66,6.54,6.54,0,0,0-1.34,4.22V91.89h-8v-27h8v4.27h.1a10.18,10.18,0,0,1,3.52-3.71,9.27,9.27,0,0,1,4.81-1.22c2.87,0,5,.92,6.46,2.78s2.15,4.64,2.15,8.35Z" transform="translate(-164.37 -37.66)"/></svg>