<svg xmlns="http://www.w3.org/2000/svg" id="Layer_1" data-name="Layer 1" viewBox="0 0 277.85 177.67"><defs><style>.cls-5,.cls-6,.cls-8{fill:none}.cls-8{stroke:#ccc}.cls-5,.cls-6,.cls-8{stroke-miterlimit:10}.cls-4{fill:#f0f0f0}.cls-5{stroke:#fff;stroke-width:2px}.cls-5,.cls-8{stroke-linecap:round}.cls-6{stroke:#999}.cls-9{fill:#f2f2f2}.cls-10{fill:#fff}</style></defs><path d="M351.09 257H87.51a6.32 6.32 0 0 1-6.31-6.32v-164a6.32 6.32 0 0 1 6.31-6.32h263.58a6.31 6.31 0 0 1 6.3 6.32v164a6.31 6.31 0 0 1-6.3 6.32Z" style="fill:#fafafa" transform="translate(-80.49 -79.79)"/><path d="M353.58 80.29H85.41c-.76 0-1.09.52-1.69.93-.44 1-2.18 1.91-2.44 3.42v168.14A8.83 8.83 0 0 0 85.1 257h16.08a.4.4 0 0 0 .38-.42V100l256 .14c.16 0 0-15.52 0-15.52-.75-1.81-2.44-3.82-3.98-4.33Z" style="fill:#e6e6e6" transform="translate(-80.49 -79.79)"/><path d="M277.06 20.37H1.39" style="stroke-width:.75px;stroke-miterlimit:10;stroke:#ccc;fill:none"/><rect width="12.62" height="12.62" x="5.44" y="4.38" class="cls-4" rx="2.95" ry="2.95"/><rect width="12.62" height="12.62" x="21.01" y="4.38" class="cls-4" rx="2.95" ry="2.95"/><rect width="12.62" height="12.62" x="36.51" y="4.38" class="cls-4" rx="2.95" ry="2.95"/><path d="M42.82 7.4v6.58M46.11 10.69h-6.58" class="cls-5"/><rect width="12.62" height="12.62" x="85.75" y="104.98" class="cls-4" rx="2.95" ry="2.95" transform="rotate(90 91.71 31.15)"/><rect width="12.62" height="12.62" x="85.75" y="120.55" class="cls-4" rx="2.95" ry="2.95" transform="rotate(90 91.705 46.715)"/><rect width="12.62" height="71.81" x="139.65" y="78.01" class="cls-4" rx="2.95" ry="2.95" transform="rotate(90 145.615 33.775)"/><path d="M36.22 32.62h47.93M36.22 35.62h58.5" class="cls-6"/><rect width="12.62" height="39.81" x="200.65" y="94.01" class="cls-4" rx="2.95" ry="2.95" transform="rotate(90 206.615 33.775)"/><path d="M114.22 32.62h20.07M114.22 35.62h24.5" class="cls-6"/><rect width="12.62" height="12.62" x="231.15" y="107.61" rx="2.95" ry="2.95" style="stroke:#ed1c24;fill:#f0f0f0;stroke-miterlimit:10" transform="rotate(90 237.115 33.775)"/><path d="M156.97 30.62v7M160.47 34.12h-7" class="cls-8"/><rect width="80" height="62" x="29.56" y="48" class="cls-9" rx="3.13" ry="3.13"/><path d="M37.06 61.5h64V73h-64zM37.06 76.5h64v22h-64z" class="cls-10"/><path d="M37.06 54h34M37.06 57h41.5M40.06 66H83.9M40.06 69h53.5M40.06 81.75H83.9M40.06 84.75h53.5M40.06 88H83.9M40.06 91h53.5M40.06 94.25h53.5" class="cls-6"/><path d="M39.5 101.62v4.88M41.94 104.06h-4.88" class="cls-8"/><path d="M119.94 48h73.75a3.13 3.13 0 0 1 3.13 3.13v97a3.12 3.12 0 0 1-3.12 3.12h-73.76a3.12 3.12 0 0 1-3.12-3.12v-97a3.13 3.13 0 0 1 3.12-3.13Z" class="cls-9"/><path d="M124.31 54h24.38M124.31 57h29.75" class="cls-6"/><path d="M124.31 61.5h64V73h-64z" class="cls-10"/><path d="M127.31 66h43.84M127.31 69h53.5" class="cls-6"/><path d="M124.31 76.5h64v22h-64z" class="cls-10"/><path d="M127.31 81.75h43.84M127.31 84.75h53.5M127.31 88h43.84M127.31 91h53.5M127.31 94.25h53.5" class="cls-6"/><path d="M124.06 102.25h64v11.5h-64z" class="cls-10"/><path d="M127.06 106.75h43.84M127.06 109.75h53.5" class="cls-6"/><path d="M124.06 117.25h64v22h-64z" class="cls-10"/><path d="M127.06 122.5h43.84M127.06 125.5h53.5M127.06 128.75h43.84M127.06 131.75h53.5M127.06 135h53.5" class="cls-6"/><path d="M126.75 142.62v4.88M129.19 145.06h-4.88" class="cls-8"/><rect width="276.85" height="176.67" x=".5" y=".5" class="cls-6" rx="6.32" ry="6.32"/></svg>