<svg xmlns="http://www.w3.org/2000/svg" id="Layer_1" data-name="Layer 1" viewBox="0 0 81 104.25"><defs><style>.cls-2{stroke:#999}.cls-2,.cls-4,.cls-6{stroke-miterlimit:10;fill:none}.cls-3{fill:#fff}.cls-4,.cls-6{stroke:#ccc;stroke-linecap:round}.cls-6{stroke:#ed1c24;stroke-width:.33px}</style></defs><rect width="80" height="103.25" x=".5" y=".5" rx="3.13" ry="3.13" style="stroke-miterlimit:10;stroke:#999;fill:#f2f2f2"/><path d="M8 6.51h24.37M8 9.51h29.75" class="cls-2"/><path d="M8 14h64v11.5H8z" class="cls-3"/><path d="M11 18.5h43.83M11 21.5h53.5" class="cls-2"/><path d="M8 29h64v22H8z" class="cls-3"/><path d="M11 34.25h43.83M11 37.25h53.5M11 40.5h43.83M11 43.5h53.5M11 46.75h53.5" class="cls-2"/><path d="M7.75 54.75h64v11.5h-64z" class="cls-3"/><path d="M10.75 59.25h43.83M10.75 62.25h53.5" class="cls-2"/><path d="M7.75 69.75h64v22h-64z" class="cls-3"/><path d="M10.75 75h43.83M10.75 78h53.5M10.75 81.25h43.83M10.75 84.25h53.5M10.75 87.5h53.5" class="cls-2"/><path d="M10.44 95.13V100M12.88 97.56H8" class="cls-4"/><path d="M451.34 130.27h-2.15a.57.57 0 0 1-.57-.57l-.37-4.14a.58.58 0 0 1 .57-.57h2.89a.58.58 0 0 1 .57.57l-.37 4.14a.57.57 0 0 1-.57.57Z" style="stroke-width:.37px;stroke:#ed1c24;stroke-miterlimit:10;fill:#f2f2f2" transform="translate(-381.14 -119.63)"/><path d="m68.04 7.5.4 3.09M69.12 7.26v3.29M70.17 7.46l-.4 3.08" class="cls-6"/></svg>