<svg id="Layer_1" data-name="Layer 1" xmlns="http://www.w3.org/2000/svg" viewBox="0 0 382 247.5"><defs><style>.cls-1{fill:#fafafa;stroke-width:2px;}.cls-1,.cls-7,.cls-8,.cls-9{stroke:#ccc;}.cls-1,.cls-10,.cls-2,.cls-3,.cls-5,.cls-7,.cls-8,.cls-9{stroke-miterlimit:10;}.cls-2,.cls-8{fill:#f2f2f2;}.cls-2,.cls-5{stroke:#999;}.cls-2,.cls-3,.cls-5,.cls-7{stroke-width:2.01px;}.cls-3,.cls-5,.cls-7,.cls-9{fill:none;}.cls-3{stroke:gray;}.cls-10,.cls-4{fill:#fff;}.cls-6{opacity:0.49;}.cls-7,.cls-9{stroke-linecap:round;}.cls-8{stroke-width:0.74px;}.cls-9{stroke-width:0.66px;}.cls-10{stroke:#ed1c24;}</style></defs><title>drag-n-drop</title><rect class="cls-1" x="1" y="1" width="380" height="245.5" rx="13.75" ry="13.75"/><rect class="cls-2" x="18.48" y="21" width="161.07" height="207.88" rx="6.3" ry="6.3"/><path class="cls-3" d="M95.58,115.6h49.07m-49.07,6h59.9" transform="translate(-62 -82.5)"/><path class="cls-4" d="M95.58,130.68H224.44v23.15H95.58Z" transform="translate(-62 -82.5)"/><path class="cls-5" d="M101.62,139.74h88.25m-88.25,6H209.34" transform="translate(-62 -82.5)"/><path class="cls-4" d="M95.58,160.88H224.44v44.29H95.58Z" transform="translate(-62 -82.5)"/><path class="cls-5" d="M101.62,171.45h88.25m-88.25,6H209.34M101.62,184h88.25m-88.25,6H209.34m-107.72,6.55H209.34" transform="translate(-62 -82.5)"/><g class="cls-6"><path class="cls-4" d="M95.08,212.72H223.93v23.16H95.08Z" transform="translate(-62 -82.5)"/><path class="cls-5" d="M101.12,221.78h88.24m-88.24,6H208.83" transform="translate(-62 -82.5)"/></g><path class="cls-4" d="M95.08,242.92H223.93v44.3H95.08Z" transform="translate(-62 -82.5)"/><path class="cls-5" d="M101.12,253.49h88.24m-88.24,6H208.83m-107.71,6.55h88.24m-88.24,6H208.83m-107.71,6.54H208.83" transform="translate(-62 -82.5)"/><path class="cls-7" d="M100.5,294v9.81m4.91-4.92H95.58" transform="translate(-62 -82.5)"/><path class="cls-8" d="M220.81,123.92h-4.33a1.15,1.15,0,0,1-1.14-1.15h0l-.75-8.34a1.18,1.18,0,0,1,1.15-1.15h5.82a1.17,1.17,0,0,1,1.14,1.15l-.74,8.34a1.15,1.15,0,0,1-1.15,1.15Z" transform="translate(-62 -82.5)"/><path class="cls-9" d="M216.46,117.59l.81,6.22m1.37-6.7v6.62m2.11-6.22-.8,6.2" transform="translate(-62 -82.5)"/><rect class="cls-2" x="200.48" y="21" width="161.07" height="207.88" rx="6.3" ry="6.3"/><path class="cls-3" d="M277.58,115.6h49.07m-49.07,6h59.9" transform="translate(-62 -82.5)"/><path class="cls-4" d="M277.58,130.68H406.44v23.15H277.58Z" transform="translate(-62 -82.5)"/><path class="cls-5" d="M283.62,139.74h88.25m-88.25,6H391.34" transform="translate(-62 -82.5)"/><path class="cls-4" d="M277.58,160.88H406.44v44.29H277.58Z" transform="translate(-62 -82.5)"/><path class="cls-5" d="M283.62,171.45h88.25m-88.25,6H391.34M283.62,184h88.25m-88.25,6H391.34m-107.72,6.55H391.34" transform="translate(-62 -82.5)"/><path class="cls-4" d="M277.08,212.72H405.93v23.16H277.08Z" transform="translate(-62 -82.5)"/><path class="cls-5" d="M283.12,221.78h88.24m-88.24,6H390.83" transform="translate(-62 -82.5)"/><path class="cls-7" d="M282.5,294v9.81m4.91-4.92h-9.83" transform="translate(-62 -82.5)"/><path class="cls-8" d="M402.81,123.92h-4.33a1.15,1.15,0,0,1-1.14-1.15h0l-.75-8.34a1.18,1.18,0,0,1,1.15-1.15h5.82a1.17,1.17,0,0,1,1.14,1.15l-.74,8.34a1.15,1.15,0,0,1-1.15,1.15Z" transform="translate(-62 -82.5)"/><path class="cls-9" d="M398.46,117.59l.81,6.22m1.37-6.7v6.62m2.11-6.22-.8,6.2" transform="translate(-62 -82.5)"/><path class="cls-10" d="M276.58,248.22H405.43v23.16H276.58Z" transform="translate(-62 -82.5)"/><path class="cls-5" d="M282.62,257.28h88.24m-88.24,6H390.33" transform="translate(-62 -82.5)"/></svg>