<svg xmlns="http://www.w3.org/2000/svg" id="Layer_1" data-name="Layer 1" viewBox="0 0 276.85 176.67"><defs><style>.cls-3{fill:#fff}.cls-4{fill:none;stroke:#999;stroke-miterlimit:10}</style></defs><rect width="276.85" height="176.67" rx="6.32" ry="6.32" style="fill:#333;opacity:.56"/><rect width="108.59" height="54.73" x="84.13" y="34.55" rx="3.13" ry="3.13" style="fill:#f2f2f2"/><path d="M88.95 46.28h99.38v9.99H88.95zM88.52 61.04h99.38v9.99H88.52zM172.08 75.6h12.65a3.13 3.13 0 0 1 3.13 3.13v2.44a3.12 3.12 0 0 1-3.12 3.12h-12.66a3.13 3.13 0 0 1-3.08-3.13v-2.44a3.13 3.13 0 0 1 3.08-3.12Z" class="cls-3"/><path d="M171.8 78.85h11.55M171.8 81.46h14.1" class="cls-4"/></svg>