<svg xmlns="http://www.w3.org/2000/svg" id="Layer_1" data-name="Layer 1" viewBox="0 0 277.85 177.67"><defs><style>.cls-5,.cls-6,.cls-7{fill:none;stroke-miterlimit:10}.cls-7{stroke:#ccc}.cls-4{fill:#f0f0f0}.cls-5{stroke:#fff;stroke-width:2px}.cls-5,.cls-7{stroke-linecap:round}.cls-6{stroke:#999}.cls-8{fill:#f2f2f2}.cls-9{fill:#fff}</style></defs><path d="M347.25 352.67H83.67a6.32 6.32 0 0 1-6.31-6.32v-164a6.32 6.32 0 0 1 6.31-6.35h263.58a6.31 6.31 0 0 1 6.3 6.32v164a6.31 6.31 0 0 1-6.3 6.35Z" style="fill:#fafafa" transform="translate(-76.65 -175.5)"/><path d="M349.74 176H81.57c-.76 0-1.09.52-1.69.93-.44 1-2.18 1.91-2.43 3.42v168.14a8.73 8.73 0 0 0 3.82 4.18h16.07a.41.41 0 0 0 .39-.42V195.73l256 .14c.17 0 0-15.52 0-15.52-.73-1.83-2.45-3.84-3.99-4.35Z" style="fill:#e6e6e6" transform="translate(-76.65 -175.5)"/><path d="M277.06 20.37H1.39" style="stroke-width:.75px;stroke:#ccc;fill:none;stroke-miterlimit:10"/><rect width="12.62" height="12.62" x="5.44" y="4.38" class="cls-4" rx="2.95" ry="2.95"/><rect width="12.62" height="12.62" x="21.01" y="4.38" class="cls-4" rx="2.95" ry="2.95"/><rect width="12.62" height="12.62" x="36.51" y="4.38" class="cls-4" rx="2.95" ry="2.95"/><path d="M42.82 7.4v6.58M46.11 10.69h-6.58" class="cls-5"/><rect width="12.62" height="12.62" x="81.91" y="200.69" class="cls-4" rx="2.95" ry="2.95" transform="rotate(90 137.645 80.925)"/><rect width="12.62" height="12.62" x="81.91" y="216.26" class="cls-4" rx="2.95" ry="2.95" transform="rotate(90 137.64 96.49)"/><rect width="12.62" height="71.81" x="135.81" y="173.72" class="cls-4" rx="2.95" ry="2.95" transform="rotate(90 191.545 83.545)"/><path d="M36.22 32.62h47.93M36.22 35.62h58.5" class="cls-6"/><rect width="12.62" height="39.81" x="196.81" y="189.72" class="cls-4" rx="2.95" ry="2.95" transform="rotate(90 252.545 83.545)"/><path d="M114.22 32.62h20.07M114.22 35.62h24.5" class="cls-6"/><rect width="12.62" height="12.62" x="227.31" y="203.32" class="cls-4" rx="2.95" ry="2.95" transform="rotate(90 283.045 83.545)"/><path d="M156.97 30.62v7M160.47 34.12h-7" class="cls-7"/><rect width="80" height="62" x="29.56" y="48" class="cls-8" rx="3.13" ry="3.13"/><path d="M37.06 61.5h64V73h-64zM37.06 76.5h64v22h-64z" class="cls-9"/><path d="M37.06 54h34M37.06 57h41.5M40.06 66H83.9M40.06 69h53.5M40.06 81.75H83.9M40.06 84.75h53.5M40.06 88H83.9M40.06 91h53.5M40.06 94.25h53.5" class="cls-6"/><path d="M39.5 101.62v4.88M41.94 104.06h-4.88" class="cls-7"/><rect width="80" height="103.25" x="116.81" y="48" class="cls-8" rx="3.13" ry="3.13"/><path d="M124.31 54h24.38M124.31 57h29.75" class="cls-6"/><path d="M124.31 61.5h64V73h-64z" class="cls-9"/><path d="M127.31 66h43.84M127.31 69h53.5" class="cls-6"/><path d="M124.31 76.5h64v22h-64z" class="cls-9"/><path d="M127.31 81.75h43.84M127.31 84.75h53.5M127.31 88h43.84M127.31 91h53.5M127.31 94.25h53.5" class="cls-6"/><path d="M124.06 102.25h64v11.5h-64z" class="cls-9"/><path d="M127.06 106.75h43.84M127.06 109.75h53.5" class="cls-6"/><path d="M124.06 117.25h64v22h-64z" class="cls-9"/><path d="M127.06 122.5h43.84M127.06 125.5h53.5M127.06 128.75h43.84M127.06 131.75h53.5M127.06 135h53.5" class="cls-6"/><path d="M126.75 142.62v4.88M129.19 145.06h-4.88" class="cls-7"/><rect width="276.85" height="176.67" x=".5" y=".5" class="cls-6" rx="6.32" ry="6.32"/><rect width="276.85" height="176.67" x=".5" y=".5" rx="6.32" ry="6.32" style="fill:#333;opacity:.56"/><rect width="73.71" height="54.73" x="102.07" y="35.05" class="cls-8" rx="3.13" ry="3.13"/><path d="M112.23 76.85h12.65A3.12 3.12 0 0 1 128 80v2.44a3.12 3.12 0 0 1-3.12 3.12h-12.65a3.12 3.12 0 0 1-3.12-3.12V80a3.13 3.13 0 0 1 3.13-3.12Z" class="cls-9"/><path d="M111.94 80.1h11.56M111.94 82.71h14.1" class="cls-6"/><rect width="18.9" height="8.69" x="149.85" y="76.85" class="cls-9" rx="3.12" ry="3.12"/><path d="M152.69 80.1h11.56M152.69 82.71h14.1M110.53 48.1h46.53M110.53 50.71h56.79M110.53 54.35h46.53M110.53 56.96h56.79M110.53 63.21h46.53M110.53 60.6h56.79" class="cls-6"/></svg>