<svg xmlns="http://www.w3.org/2000/svg" id="Layer_1" data-name="Layer 1" viewBox="0 0 276.85 176.67"><defs><style>.cls-3{fill:#fff}.cls-4{fill:none;stroke:#999;stroke-miterlimit:10}</style></defs><rect width="276.85" height="176.67" rx="6.32" ry="6.32" style="fill:#333;opacity:.56"/><rect width="73.71" height="54.73" x="101.57" y="34.55" rx="3.13" ry="3.13" style="fill:#f2f2f2"/><rect width="18.9" height="8.69" x="108.6" y="76.35" class="cls-3" rx="3.13" ry="3.13"/><path d="M111.44 79.6H123M111.44 82.21h14.1" class="cls-4"/><path d="M152.48 76.35h12.65a3.13 3.13 0 0 1 3.13 3.13v2.44a3.13 3.13 0 0 1-3.14 3.08h-12.64a3.12 3.12 0 0 1-3.12-3.12v-2.41a3.13 3.13 0 0 1 3.12-3.12Z" class="cls-3"/><path d="M152.19 79.6h11.56M152.19 82.21h14.1M110.03 47.6h46.53M110.03 50.21h56.79M110.03 53.85h46.53M110.03 56.46h56.79M110.03 62.71h46.53M110.03 60.1h56.79" class="cls-4"/></svg>