<svg xmlns="http://www.w3.org/2000/svg" id="Layer_1" data-name="Layer 1" viewBox="0 0 276.85 176.67"><defs><style>.cls-3{fill:#fff}.cls-4{fill:none;stroke:#999;stroke-miterlimit:10}</style></defs><rect width="276.85" height="176.67" rx="6.32" ry="6.32" style="fill:#333;opacity:.56"/><rect width="73.71" height="38.41" x="101.57" y="34.55" rx="3.13" ry="3.13" style="fill:#f2f2f2"/><path d="M152.48 59.35h12.65a3.13 3.13 0 0 1 3.13 3.13v2.44a3.13 3.13 0 0 1-3.14 3.08h-12.64a3.12 3.12 0 0 1-3.12-3.12v-2.41a3.13 3.13 0 0 1 3.13-3.12Z" class="cls-3"/><path d="M152.19 62.6h11.56M152.19 65.21h14.1" class="cls-4"/><path d="M106.24 46.58h64v7.71h-64z" class="cls-3"/><path d="M107.24 40.42h34M107.24 43.42h41.5" class="cls-4"/></svg>