<svg xmlns="http://www.w3.org/2000/svg" id="Layer_1" data-name="Layer 1" viewBox="0 0 64.7 22.7"><defs><style>.cls-2,.cls-4{stroke-miterlimit:10;fill:none}.cls-2{stroke:#999}.cls-4{stroke:red;stroke-width:.3px;stroke-linecap:round}</style></defs><path d="M.35.35h64v22h-64z" style="stroke-miterlimit:10;fill:#fff;stroke:#ccc;stroke-width:.7px"/><path d="M3.35 5.6h43.83M3.35 8.6h53.5M3.35 11.85h43.83M3.35 14.85h53.5M3.35 18.1h53.5" class="cls-2"/><path d="M315.49 201.25H314a.58.58 0 0 1-.62-.54l-.22-2.92a.58.58 0 0 1 .61-.54h1.93a.58.58 0 0 1 .62.54l-.23 2.92a.58.58 0 0 1-.6.54Z" style="stroke:red;stroke-width:.3px;fill:#f2f2f2;stroke-miterlimit:10" transform="translate(-254.12 -195.78)"/><path d="M60.57 2.65v2.71M59.79 2.66l.21 2.7M61.4 2.66l-.21 2.7" class="cls-4"/></svg>